<?xml version="1.0" encoding="UTF-8"?>
<svg width="22px" height="22px" viewBox="0 0 22 22" version="1.1" xmlns="http://www.w3.org/2000/svg" xmlns:xlink="http://www.w3.org/1999/xlink">
    <!-- Generator: Sketch 50.2 (55047) - http://www.bohemiancoding.com/sketch -->
    <title>1</title>
    <desc>Created with Sketch.</desc>
    <defs></defs>
    <g id="Samples" stroke="none" stroke-width="1" fill="none" fill-rule="evenodd">
        <g id="Desktop-HD" transform="translate(-35.000000, -819.000000)">
            <g id="Side">
                <g id="1" transform="translate(35.000000, 819.000000)">
                    <path d="M2.66666667,6 C2.20642938,6 1.83333333,6.37309604 1.83333333,6.83333333 L1.83333333,19.3333333 C1.83333333,19.7935706 2.20642938,20.1666667 2.66666667,20.1666667 L19.3333333,20.1666667 C19.7935706,20.1666667 20.1666667,19.7935706 20.1666667,19.3333333 L20.1666667,6.83333333 C20.1666667,6.37309604 19.7935706,6 19.3333333,6 L2.66666667,6 Z M11,4.33333333 L19.3333333,4.33333333 C20.7140452,4.33333333 21.8333333,5.45262146 21.8333333,6.83333333 L21.8333333,9.33333333 C21.8333333,9.79357062 21.4602373,10.1666667 21,10.1666667 C20.5397627,10.1666667 20.1666667,9.79357062 20.1666667,9.33333333 L20.1666667,6.83333333 C20.1666667,6.37309604 19.7935706,6 19.3333333,6 L2.66666667,6 C2.20642938,6 1.83333333,6.37309604 1.83333333,6.83333333 L1.83333333,8.5 L17.6666667,8.5 C18.126904,8.5 18.5,8.87309604 18.5,9.33333333 C18.5,9.79357062 18.126904,10.1666667 17.6666667,10.1666667 L0.166666667,10.1666667 L0.166666667,6.83333333 C0.166666667,5.45262146 1.28595479,4.33333333 2.66666667,4.33333333 L11,4.33333333 L19.3333333,4.33333333 C20.7140452,4.33333333 21.8333333,5.45262146 21.8333333,6.83333333 L21.8333333,19.3333333 C21.8333333,20.7140452 20.7140452,21.8333333 19.3333333,21.8333333 L2.66666667,21.8333333 C1.28595479,21.8333333 0.166666667,20.7140452 0.166666667,19.3333333 L0.166666667,6.83333333 C0.166666667,5.45262146 1.28595479,4.33333333 2.66666667,4.33333333 L11,4.33333333 Z" id="Combined-Shape-Copy" fill="#DADDE8" fill-rule="nonzero"></path>
                    <circle id="Oval-Copy-11" fill="#4D8CF4" cx="4.75" cy="13.0833333" r="1.25"></circle>
                    <circle id="Oval-Copy-17" fill="#4D8CF4" cx="8.91666667" cy="13.0833333" r="1.25"></circle>
                    <circle id="Oval-Copy-14" fill="#4D8CF4" cx="4.75" cy="17.25" r="1.25"></circle>
                    <circle id="Oval-Copy-18" fill="#4D8CF4" cx="8.91666667" cy="17.25" r="1.25"></circle>
                    <circle id="Oval-Copy-12" fill="#4D8CF4" cx="13.0833333" cy="13.0833333" r="1.25"></circle>
                    <circle id="Oval-Copy-15" fill="#4D8CF4" cx="13.0833333" cy="17.25" r="1.25"></circle>
                    <circle id="Oval-Copy-16" fill="#4D8CF4" cx="17.25" cy="17.25" r="1.25"></circle>
                    <rect id="Rectangle-Copy-3" fill="#4D8CF4" x="4.33333333" y="0.166666667" width="1.66666667" height="3.33333333" rx="0.833333333"></rect>
                    <rect id="Rectangle-Copy-2" fill="#4D8CF4" x="16" y="0.166666667" width="1.66666667" height="3.33333333" rx="0.833333333"></rect>
                    <path d="M16.8331797,12.3215765 L17.9117368,11.2452723 C18.2371737,10.9198354 18.7648112,10.9198354 19.0902481,11.2452723 C19.415685,11.5707092 19.415685,12.0983467 19.0902481,12.4237836 L17.4784417,14.0322232 C17.4615227,14.0527249 17.4434733,14.0726069 17.4242935,14.0917867 C17.0988566,14.4172236 16.5712191,14.4172236 16.2457822,14.0917867 L15.4107443,13.2559223 C15.0853074,12.9304854 15.0853074,12.4028479 15.4107443,12.077411 C15.7361813,11.7519741 16.2638187,11.7519741 16.5892557,12.077411 L16.8331797,12.3215765 Z" id="Combined-Shape" fill="#4D8CF4"></path>
                </g>
            </g>
        </g>
    </g>
</svg>