<?xml version="1.0" encoding="UTF-8"?>
<svg width="22px" height="18px" viewBox="0 0 22 18" version="1.1" xmlns="http://www.w3.org/2000/svg" xmlns:xlink="http://www.w3.org/1999/xlink">
    <!-- Generator: Sketch 50.2 (55047) - http://www.bohemiancoding.com/sketch -->
    <title>2</title>
    <desc>Created with Sketch.</desc>
    <defs></defs>
    <g id="Samples" stroke="none" stroke-width="1" fill="none" fill-rule="evenodd">
        <g id="Desktop-HD" transform="translate(-35.000000, -751.000000)">
            <g id="Side">
                <g id="2" transform="translate(35.000000, 751.000000)">
                    <path d="M17.6,7.8 C18.6677505,7.8 19.5333333,6.93441718 19.5333333,5.86666667 C19.5333333,4.79891615 18.6677505,3.93333333 17.6,3.93333333 C16.5322495,3.93333333 15.6666667,4.79891615 15.6666667,5.86666667 C15.6666667,6.93441718 16.5322495,7.8 17.6,7.8 Z M17.6,8.33333333 C16.2376976,8.33333333 15.1333333,7.22896905 15.1333333,5.86666667 C15.1333333,4.50436428 16.2376976,3.4 17.6,3.4 C18.9623024,3.4 20.0666667,4.50436428 20.0666667,5.86666667 C20.0666667,7.22896905 18.9623024,8.33333333 17.6,8.33333333 Z" id="Combined-Shape" stroke="#4D8CF4" stroke-width="2"></path>
                    <path d="M8.06666667,7.8 C9.94443482,7.8 11.4666667,6.27776815 11.4666667,4.4 C11.4666667,2.52223185 9.94443482,1 8.06666667,1 C6.18889852,1 4.66666667,2.52223185 4.66666667,4.4 C4.66666667,6.27776815 6.18889852,7.8 8.06666667,7.8 Z M8.06666667,8.33333333 C5.89434665,8.33333333 4.13333333,6.57232002 4.13333333,4.4 C4.13333333,2.22767998 5.89434665,0.466666667 8.06666667,0.466666667 C10.2389867,0.466666667 12,2.22767998 12,4.4 C12,6.57232002 10.2389867,8.33333333 8.06666667,8.33333333 Z" id="Combined-Shape" stroke="#DADDE8" stroke-width="2"></path>
                    <path d="M14.5914792,12.7901176 C14.4128422,13.1536021 13.9733659,13.3034505 13.6098815,13.1248135 C13.246397,12.9461765 13.0965485,12.5067002 13.2751855,12.1432157 C14.1212893,10.4215927 15.5979274,9.53333333 17.5906019,9.53333333 C19.581787,9.53333333 21.0631694,10.4198906 21.922579,12.1387101 C22.1037044,12.500961 21.9568732,12.9414545 21.5946223,13.12258 C21.2323714,13.3037054 20.7918778,13.1568742 20.6107524,12.7946233 C20.0034955,11.5801094 19.0341687,11 17.5906019,11 C16.1485243,11 15.1869828,11.5784073 14.5914792,12.7901176 Z" id="Path-10-Copy-2" fill="#4D8CF4" fill-rule="nonzero"></path>
                    <path d="M1.44929009,17.0253604 C1.36164597,17.4207724 0.970051607,17.6702675 0.574639608,17.5826234 C0.179227609,17.4949793 -0.0702675491,17.1033849 0.0173765754,16.7079729 C1.06355723,11.9880629 3.78404402,9.53333333 8.04787138,9.53333333 C12.3102395,9.53333333 15.0424425,11.9860298 16.1150858,16.7040932 C16.2048726,17.0990242 15.9575044,17.4919656 15.5625735,17.5817524 C15.1676425,17.6715393 14.7747011,17.4241711 14.6849142,17.0292401 C13.7568933,12.9473035 11.5876772,11 8.04787138,11 C4.50952482,11 2.35365292,12.9452704 1.44929009,17.0253604 Z" id="Path-10" fill="#DADDE8" fill-rule="nonzero"></path>
                </g>
            </g>
        </g>
    </g>
</svg>