<?xml version="1.0" encoding="UTF-8"?>
<svg width="22px" height="23px" viewBox="0 0 22 23" version="1.1" xmlns="http://www.w3.org/2000/svg" xmlns:xlink="http://www.w3.org/1999/xlink">
    <!-- Generator: Sketch 50.2 (55047) - http://www.bohemiancoding.com/sketch -->
    <title>3</title>
    <desc>Created with Sketch.</desc>
    <defs></defs>
    <g id="Samples" stroke="none" stroke-width="1" fill="none" fill-rule="evenodd">
        <g id="Desktop-HD" transform="translate(-35.000000, -909.000000)" fill-rule="nonzero">
            <g id="Side">
                <g id="3" transform="translate(35.500000, 909.000000)">
                    <path d="M7.91878225,4.58909978 L7.62826539,4.71596329 C7.1232086,4.93651254 6.64483724,5.21363988 6.20192136,5.54148199 L5.94611908,5.73082439 L3.65408187,5.30968223 C3.34896633,5.25361986 3.04158302,5.39561353 2.88647138,5.66427477 L1.72068523,7.68347562 C1.5657269,7.95187132 1.5962215,8.28870339 1.79686286,8.52490538 L3.30726482,10.3030032 L3.2721913,10.6176824 C3.24192492,10.8892319 3.22666667,11.1636014 3.22666667,11.44 C3.22666667,11.7200218 3.24232757,11.9979599 3.27338881,12.2729909 L3.3093458,12.5913713 L1.76967687,14.3776799 C1.56607301,14.6138991 1.53413645,14.9530489 1.69006434,15.223124 L2.84917014,17.2307541 C3.00494633,17.5005664 3.31419958,17.6424984 3.62034058,17.5846835 L5.9422682,17.1461856 L6.19985762,17.3369899 C6.64334924,17.6654976 7.12242217,17.943144 7.62826539,18.1640367 L7.91878225,18.2909002 L8.70297742,20.4866467 C8.80721367,20.7785082 9.08367149,20.9733333 9.39358815,20.9733333 L11.7276703,20.9733333 C12.0372784,20.9733333 12.3135308,20.77889 12.4179976,20.4874387 L13.2059913,18.2890211 L13.495736,18.1622879 C13.9979954,17.9426018 14.4738268,17.6669463 14.9145978,17.3410929 L15.1699063,17.1523483 L17.4661146,17.5715521 C17.7709922,17.6272116 18.0779446,17.4852047 18.2329029,17.216809 L19.399944,15.1954346 C19.554748,14.9273061 19.5244814,14.5908428 19.3243106,14.3546462 L17.8134895,12.5719147 L17.8482922,12.2579677 C17.8782376,11.9878376 17.8933333,11.7149222 17.8933333,11.44 C17.8933333,11.2133384 17.8830723,10.98803 17.8626848,10.7645067 L17.8343864,10.4542515 L19.6928052,8.30300723 C19.8968705,8.06678797 19.9290327,7.72727779 19.7729541,7.45694162 L18.6150872,5.45145745 C18.4591593,5.18138242 18.1494787,5.03946537 17.843105,5.0976819 L15.0451453,5.62934459 L14.7907786,5.44934281 C14.3826731,5.16054836 13.9461524,4.91407676 13.4877685,4.71423276 L13.1964845,4.58724018 L12.4160519,2.39414057 C12.3120455,2.10187159 12.0353837,1.90666667 11.7251605,1.90666667 L9.39358815,1.90666667 C9.08367149,1.90666667 8.80721367,2.1014918 8.70297742,2.39335331 L7.91878225,4.58909978 Z M7.32175595,1.90005993 C7.63446471,1.0244754 8.46383817,0.44 9.39358815,0.44 L11.7251605,0.44 C12.6558303,0.44 13.4858156,1.02561476 13.7978347,1.90242172 L14.3679432,3.50448804 C14.7161706,3.67186738 15.0528343,3.86203411 15.3758404,4.07359636 L17.569311,3.65679746 C18.4884322,3.48214788 19.4174741,3.90789901 19.8852578,4.71812412 L21.0431247,6.72360829 C21.5113606,7.53461679 21.4148739,8.55314732 20.802678,9.26180513 L19.3464313,10.9475083 C19.3554663,11.1110735 19.36,11.27528 19.36,11.44 C19.36,11.6608648 19.3518489,11.8807943 19.3356279,12.0994783 L20.4432143,13.4064028 C21.0437267,14.1149927 21.1345268,15.1243824 20.6701146,15.9287679 L19.5030735,17.9501423 C19.0381985,18.7553294 18.1173412,19.1813502 17.2027084,19.0143716 L15.523199,18.7077546 C15.1581434,18.9574951 14.7746874,19.1795012 14.3759757,19.371646 L13.7986523,20.9823161 C13.4852518,21.85667 12.6564946,22.44 11.7276703,22.44 L9.39358815,22.44 C8.46383817,22.44 7.63446471,21.8555246 7.32175595,20.9799401 L6.7480592,19.3735892 C6.34634043,19.1802481 5.96009065,18.9566026 5.59252382,18.7048267 L3.89251085,19.0258755 C2.97408787,19.1993204 2.04632811,18.7735243 1.57899955,17.9640875 L0.419893749,15.9564573 C-0.0478899375,15.1462322 0.0479197418,14.1287827 0.658731326,13.4201252 L1.7853849,12.1129929 C1.76849052,11.8898574 1.76,11.6654166 1.76,11.44 C1.76,11.2176293 1.76826263,10.9962071 1.78470489,10.77605 L0.67904752,9.47443158 C0.077123459,8.76582558 -0.0143603544,7.75532939 0.450514636,6.95014229 L1.61630079,4.93094144 C2.0816357,4.12495773 3.00378563,3.69897672 3.91913225,3.8671638 L5.59314339,4.17474898 C5.9605257,3.92314545 6.34656717,3.69964277 6.7480592,3.50641084 L7.32175595,1.90005993 Z" id="Combined-Shape" fill="#DADDE8"></path>
                    <path d="M10.56,15.1066667 C8.53495592,15.1066667 6.89333333,13.4650441 6.89333333,11.44 C6.89333333,9.41495592 8.53495592,7.77333333 10.56,7.77333333 C12.5850441,7.77333333 14.2266667,9.41495592 14.2266667,11.44 C14.2266667,13.4650441 12.5850441,15.1066667 10.56,15.1066667 Z M10.56,13.64 C11.7750264,13.64 12.76,12.6550264 12.76,11.44 C12.76,10.2249736 11.7750264,9.24 10.56,9.24 C9.34497355,9.24 8.36,10.2249736 8.36,11.44 C8.36,12.6550264 9.34497355,13.64 10.56,13.64 Z" id="Oval" fill="#4D8CF4"></path>
                </g>
            </g>
        </g>
    </g>
</svg>