<?xml version="1.0" encoding="UTF-8"?>
<svg width="94px" height="95px" viewBox="0 0 94 95" version="1.1" xmlns="http://www.w3.org/2000/svg" xmlns:xlink="http://www.w3.org/1999/xlink">
    <!-- Generator: Sketch 50.2 (55047) - http://www.bohemiancoding.com/sketch -->
    <title>Attachment</title>
    <desc>Created with Sketch.</desc>
    <defs>
        <filter x="-9.9%" y="-16.5%" width="120.9%" height="135.5%" filterUnits="objectBoundingBox" id="filter-1">
            <feOffset dx="0" dy="5" in="SourceAlpha" result="shadowOffsetOuter1"></feOffset>
            <feGaussianBlur stdDeviation="22.5" in="shadowOffsetOuter1" result="shadowBlurOuter1"></feGaussianBlur>
            <feColorMatrix values="0 0 0 0 0.180392157   0 0 0 0 0.407843137   0 0 0 0 0.815686275  0 0 0 0.1 0" type="matrix" in="shadowBlurOuter1" result="shadowMatrixOuter1"></feColorMatrix>
            <feMerge>
                <feMergeNode in="shadowMatrixOuter1"></feMergeNode>
                <feMergeNode in="SourceGraphic"></feMergeNode>
            </feMerge>
        </filter>
    </defs>
    <g id="Samples" stroke="none" stroke-width="1" fill="none" fill-rule="evenodd">
        <g id="Desktop-HD" transform="translate(-853.000000, -475.000000)" fill="#A6A6A6">
            <g id="Chat" filter="url(#filter-1)" transform="translate(140.000000, 156.000000)">
                <g id="Bar" transform="translate(0.000000, 328.000000)">
                    <g id="Box" transform="translate(10.000000, 10.000000)">
                        <path d="M752.985067,15.0149333 C751.96512,15.0149333 750.94496,15.4349867 750.165013,16.19488 L744.60512,21.63488 C742.46496,23.7748267 742.46496,27.23488 744.60512,29.39488 C746.745067,31.53504 750.20512,31.53504 752.36512,29.39488 L754.865173,26.89504 L753.48512,25.5149867 L751.16512,27.7748267 L750.985067,28.03488 C749.605013,29.4149333 747.365013,29.4149333 745.98496,28.03488 C744.625173,26.67488 744.665067,24.4749867 745.98496,23.0949333 L751.545067,17.5949867 C752.325013,16.81504 753.625067,16.81504 754.425067,17.5949867 C755.205013,18.3749333 755.16512,19.6148267 754.425067,20.4148267 L749.425173,25.3549867 C749.225067,25.55488 748.885013,25.55488 748.665067,25.3549867 C748.465173,25.15488 748.465173,24.81504 748.665067,24.59488 L748.785173,24.5349333 L750.60512,22.6548267 L749.225067,21.2749867 L747.285013,23.21504 C746.325013,24.17504 746.325013,25.7549867 747.285013,26.7149867 C748.245013,27.6749867 749.82496,27.69504 750.78496,26.7149867 L755.785067,21.8349867 C757.34496,20.27488 757.34496,17.7549867 755.785067,16.2149333 C755.00512,15.4349867 754.005013,15.0349867 752.965013,15.0349867 L752.985067,15.0149333 Z" id="Attachment"></path>
                    </g>
                </g>
            </g>
        </g>
    </g>
</svg>