<?xml version="1.0" encoding="UTF-8"?>
<svg width="12px" height="12px" viewBox="0 0 12 12" version="1.1" xmlns="http://www.w3.org/2000/svg" xmlns:xlink="http://www.w3.org/1999/xlink">
    <!-- Generator: Sketch 50.2 (55047) - http://www.bohemiancoding.com/sketch -->
    <title>Search icon</title>
    <desc>Created with Sketch.</desc>
    <defs></defs>
    <g id="Samples" stroke="none" stroke-width="1" fill="none" fill-rule="evenodd">
        <g id="Desktop-HD" transform="translate(-776.000000, -34.000000)" fill="#DADDE8">
            <g id="Header" transform="translate(0.000000, 20.000000)">
                <g id="Search-+-P" transform="translate(764.000000, 0.000000)">
                    <g id="Search">
                        <path d="M19.9075407,16.6003203 C18.4416941,15.1344737 16.0661669,15.1344737 14.6003203,16.6003203 C13.1344737,18.0661669 13.1344737,20.4416941 14.6003203,21.9075407 C16.0661669,23.3733873 18.4416941,23.3733873 19.9075407,21.9075407 C21.3733873,20.4416941 21.3733873,18.0661669 19.9075407,16.6003203 M23.8104605,25.8104605 C23.5169909,26.1031795 23.0418855,26.1031795 22.748416,25.8104605 L20.3848978,23.4461918 C18.3268582,24.9848428 15.4086751,24.8392339 13.5390264,22.9688347 C11.4869912,20.9175501 11.4869912,17.5910615 13.5390264,15.5390264 C15.5903109,13.4869912 18.9175501,13.4869912 20.9688347,15.5390264 C22.8392339,17.4086751 22.9848428,20.3268582 21.4461918,22.3848978 L23.8104605,24.7491665 C24.1031795,25.0418855 24.1031795,25.5169909 23.8104605,25.8104605" id="Search-icon"></path>
                    </g>
                </g>
            </g>
        </g>
    </g>
</svg>