<?xml version="1.0" encoding="UTF-8"?>
<svg width="89px" height="91px" viewBox="0 0 89 91" version="1.1" xmlns="http://www.w3.org/2000/svg" xmlns:xlink="http://www.w3.org/1999/xlink">
    <!-- Generator: Sketch 50.2 (55047) - http://www.bohemiancoding.com/sketch -->
    <title>Shape</title>
    <desc>Created with Sketch.</desc>
    <defs>
        <filter x="-8.1%" y="-81.2%" width="116.3%" height="275.0%" filterUnits="objectBoundingBox" id="filter-1">
            <feOffset dx="0" dy="5" in="SourceAlpha" result="shadowOffsetOuter1"></feOffset>
            <feGaussianBlur stdDeviation="22.5" in="shadowOffsetOuter1" result="shadowBlurOuter1"></feGaussianBlur>
            <feColorMatrix values="0 0 0 0 0.180392157   0 0 0 0 0.407843137   0 0 0 0 0.815686275  0 0 0 0.1 0" type="matrix" in="shadowBlurOuter1" result="shadowMatrixOuter1"></feColorMatrix>
            <feMerge>
                <feMergeNode in="shadowMatrixOuter1"></feMergeNode>
                <feMergeNode in="SourceGraphic"></feMergeNode>
            </feMerge>
        </filter>
    </defs>
    <g id="Samples" stroke="none" stroke-width="1" fill="none" fill-rule="evenodd">
        <g id="Desktop-HD" transform="translate(-919.000000, -627.000000)" fill="#A6A6A6" fill-rule="nonzero">
            <g id="1" transform="translate(140.000000, 590.000000)">
                <g filter="url(#filter-1)" transform="translate(0.000000, 38.000000)" id="Shape">
                    <path d="M824,37.1841518 C824.280831,37.1841518 824.508475,37.4139978 824.508475,37.6975446 L824.508475,43.574173 C824.508475,43.8577199 824.280831,44.0875658 824,44.0875658 C823.719169,44.0875658 823.491525,43.8577199 823.491525,43.574173 L823.491525,37.6975446 C823.491525,37.4139978 823.719169,37.1841518 824,37.1841518 Z M825.780144,37.675135 L825.525907,43.5517891 C825.513653,43.8350536 825.731153,44.074731 826.011703,44.0871038 C826.019254,44.0874375 826.02678,44.0876172 826.03428,44.0876172 C826.304864,44.0876172 826.529966,43.8722489 826.54189,43.5966083 L826.796127,37.7199799 C826.808381,37.4367154 826.590881,37.1970379 826.310331,37.1846652 C826.030237,37.17201 825.792398,37.3918705 825.780144,37.675135 Z M821.689669,37.1846395 C821.409119,37.1970123 821.191619,37.4366641 821.203873,37.7199542 L821.45811,43.5965826 C821.470034,43.8722232 821.69511,44.0875915 821.96572,44.0875915 C821.973195,44.0875915 821.980746,44.0874375 821.988297,44.0870781 C822.268847,44.0747054 822.486347,43.8350536 822.474093,43.5517634 L822.219856,37.6751094 C822.207602,37.3918705 821.969788,37.1719074 821.689669,37.1846395 Z M830,35.6439732 C830,35.9275201 829.772356,36.1573661 829.491525,36.1573661 L828.964949,36.1573661 L828.524636,41.9211763 C828.504068,42.1904252 828.28128,42.395115 828.01822,42.395115 C828.005076,42.395115 827.991881,42.3946016 827.978559,42.3935748 C827.698568,42.3717556 827.489102,42.1249163 827.510686,41.8422165 L827.944975,36.1573661 L820.055025,36.1573661 L820.668347,44.1857522 C820.717873,44.7163694 821.152568,45.1160714 821.680797,45.1160714 L826.319203,45.1160714 C826.849237,45.1160714 827.284619,44.7208359 827.331932,44.1966875 C827.357432,43.9143214 827.604551,43.7062946 827.884492,43.7320413 C828.164153,43.7577879 828.370186,44.0075536 828.344686,44.2899453 C828.249297,45.3462768 827.378534,46.1428571 826.319203,46.1428571 L821.680797,46.1428571 C821.172144,46.1428571 820.685127,45.9521574 820.309466,45.6058739 C819.933805,45.2595904 819.701483,44.7872176 819.655314,44.2757757 C819.65511,44.2733884 819.654907,44.2710011 819.654729,44.2686395 L819.035051,36.1573661 L818.508475,36.1573661 C818.227644,36.1573661 818,35.9275201 818,35.6439732 C818,35.3604263 818.227644,35.1305804 818.508475,35.1305804 L821.584746,35.1305804 L821.584746,34.5401786 C821.584746,33.6909241 822.269051,33 823.110169,33 L824.889831,33 C825.730949,33 826.415254,33.6909241 826.415254,34.5401786 L826.415254,35.1305804 L829.491525,35.1305804 C829.772356,35.1305804 830,35.3604263 830,35.6439732 Z M822.601695,35.1305804 L825.398305,35.1305804 L825.398305,34.5401786 C825.398305,34.2570938 825.170203,34.0267857 824.889831,34.0267857 L823.110169,34.0267857 C822.829797,34.0267857 822.601695,34.2570938 822.601695,34.5401786 L822.601695,35.1305804 Z"></path>
                </g>
            </g>
        </g>
    </g>
</svg>